<svg id="Layer_1" data-name="Layer 1" xmlns="http://www.w3.org/2000/svg" viewBox="0 0 181.71 136.83"><defs><style>.cls-1{fill:#fff;}</style></defs><title>icon</title><path class="cls-1" d="M175.62,139.83l25.89-56.76a7.18,7.18,0,0,0,.58-1.67,6.27,6.27,0,0,0-1.42-5.09h0a6.19,6.19,0,0,0-4.81-2.22H98.35A24.82,24.82,0,0,0,75.88,88.61l-25.09,55.7a15.29,15.29,0,0,1-3,4.78H161.23A15.86,15.86,0,0,0,175.62,139.83Z" transform="translate(-20.46 -12.26)"/><path class="cls-1" d="M33.36,148.7H35.1a12.92,12.92,0,0,0,12-8.14h0L72.21,84.77a27.26,27.26,0,0,1,24.7-16h59.92a13.07,13.07,0,0,0,9.69-12.61V26.76c0-9-11.66-14.5-22.66-14.5h-11c-10.06,0-20.33,5-20.33,14.5V39.85h30.69v4.9H46.44a26,26,0,0,0-26,26V135.8A12.9,12.9,0,0,0,33.36,148.7ZM124.47,33.19a6.1,6.1,0,1,1,6.1-6.1A6.1,6.1,0,0,1,124.47,33.19Z" transform="translate(-20.46 -12.26)"/></svg>