<svg version="1" xmlns="http://www.w3.org/2000/svg" width="933.333" height="933.333" viewBox="0 0 700.000000 700.000000"><path d="M428.5 112.2c-22.8 2.7-46.1 15.7-53.3 30-4.5 8.8-4.9 12.3-5.1 39.7l-.2 26.1 42.3.1c23.3 0 47.4.1 53.6.1l11.2.1V225H356.3c-152.7.1-231.1.6-234.3 1.5-24.5 7.1-34.4 12.6-48.3 26.8-7.6 7.8-13.3 16.3-17.8 26.7-7.6 17.7-7.2 9-7.4 146-.1 101.8.1 123.4 1.3 127.9 4 15.6 15.1 27.5 30.2 32.2 9.2 2.9 24.3 2.8 32.9-.1 16.2-5.4 22.9-13 34.4-39 .8-1.9 5-11.2 9.2-20.5 4.3-9.4 8.1-17.9 8.5-19 .4-1.1 2.2-5.2 4-9 1.8-3.9 8.4-18.5 14.7-32.5 6.3-14 12.6-28 14-31 2.2-4.9 4.4-9.6 13.7-30.5 19.6-43.6 23-50.3 29.4-58.5 10.6-13.5 27.8-25.7 44.2-31.5 2.5-.9 8.3-2.4 13-3.3 7.7-1.6 19.2-1.8 118.5-2l110-.3 6.4-3c6.5-3 19.1-14.4 19.1-17.3 0-.7.6-1.9 1.4-2.5.7-.6 2.2-3.9 3.2-7.4 1.7-5.7 1.8-11.1 1.9-64.2.1-61.2.2-60.3-4.6-69.6-8-15.7-33.2-29.4-60-32.5-8.3-.9-57.5-1.1-65.4-.2zm-5.7 33.5c6.5 4 10.6 11.8 9.9 18.9-.6 6.2-2.4 9.9-6.8 14.2-9.6 9.4-26.4 6.3-32.7-6-9.7-18.8 11.6-38.2 29.6-27.1z"/><path d="M363 327.7c-1.9.2-15.9.4-31 .6-31.4.4-33.3.8-49.5 8.7-18 8.8-30.4 21.4-40.1 40.9-3 6.1-5.4 11.2-5.4 11.5 0 .2-2.1 4.8-4.6 10.2-7.2 15.7-8.1 17.6-10.2 22.4-1.6 3.6-22.1 49.1-31.7 70.5-1.3 2.7-3.3 7.2-4.5 10-2.7 6.2-3.9 9-9.1 20.2-2.2 4.8-6.6 14.4-9.6 21.3-3.1 6.9-6.8 15.2-8.3 18.5-1.5 3.3-3.7 8.2-5 11-1.2 2.7-3.8 7.2-5.7 9.9-2.2 3.1-3.1 5.1-2.4 5.5.6.4 91.9.6 202.8.5 220.9-.2 203.5.3 216.7-6 7-3.3 16.2-11.5 20.9-18.7 1.8-2.9 8.8-17.1 15.4-31.7 6.7-14.6 13.6-29.7 15.3-33.5 1.8-3.9 4.3-9.5 5.7-12.5 1.3-3 3.5-7.8 4.8-10.5 6-12.8 10.5-22.7 10.5-23 0-.2 2.5-5.6 5.5-12 3-6.5 5.5-11.8 5.5-12 0-.2 1.7-4.1 3.9-8.7 9.1-19.7 10.5-22.8 14.3-31.3 4.2-9.6 6.6-14.7 11.8-26 5.6-12 5.2-20.4-1.5-28.3-7-8.1 6-7.5-161.8-7.6-82.1-.1-150.8 0-152.7.1z"/></svg>